<?xml version="1.0" encoding="utf-8"?>
<!-- Generator: Adobe Illustrator 24.0.1, SVG Export Plug-In . SVG Version: 6.00 Build 0)  -->
<svg version="1.1" id="Layer_1" xmlns="http://www.w3.org/2000/svg" xmlns:xlink="http://www.w3.org/1999/xlink" x="0px" y="0px"
	 viewBox="0 0 1000 1000" style="enable-background:new 0 0 1000 1000;" xml:space="preserve">
<style type="text/css">
	.st0{fill:#ffc338;stroke:url(#SVGID_1_);stroke-width:11;stroke-miterlimit:10;}
	.st1{fill:#606060;}
	.st2{fill:#DBD9D9;}
	.st3{fill:#BCBCBC;}
	.st4{fill:#FFFFFF;}
	.st5{fill:#FADE63;}
	.st6{fill:#FF7D05;}
	.st7{fill:#8628FE;}
</style>

<circle class="st0" cx="490.72" cy="500" r="352.34"/>
<circle class="st1" cx="-546.38" cy="438.32" r="352.34"/>
<g>
	<path class="st2" d="M-377.07,444.61v92.09c0,0,0,72.14-66.89,72.14h-74.76V444.61H-377.07z"/>
	<path class="st3" d="M-518.72,208.79v250.52h219.04V287.49c0,0,9.84-78.7-91.81-78.7H-518.72z"/>
	<path class="st4" d="M-703.72,208.79c-101.65,0-89.13,95.75-89.13,95.75l2.57,222.18c-0.66,82.11,74.76,84.57,74.76,84.57
		l83.94,2.68l6.56,53.89l108.86-59.02V208.79H-703.72z M-665.76,396.35c-33.25,0-60.2-26.95-60.2-60.2c0-33.25,26.95-60.2,60.2-60.2
		s60.2,26.95,60.2,60.2C-605.56,369.4-632.52,396.35-665.76,396.35z"/>
</g>
<g>
	<path class="st5" d="M675.03,544.79v95.19c0,0,0,74.57-69.15,74.57h-77.29V544.79H675.03z"/>
	<path class="st6" d="M528.59,301.02v258.98h226.43V382.37c0,0,10.17-81.35-94.91-81.35H528.59z"/>
	<path class="st7" d="M531.25,301.02v413.55l-112.54,61.02l-6.78-55.7l-86.78-2.77c0,0-77.96-2.54-77.29-87.43L245.21,400
		c0,0-12.94-98.98,92.14-98.98H531.25z"/>
	<circle class="st4" cx="376.59" cy="432.68" r="62.23"/>
</g>
</svg>
