<svg id="saudi" xmlns="http://www.w3.org/2000/svg" width="24" height="18" viewBox="0 0 24 18">
  <path id="Path_11053" data-name="Path 11053" d="M21.333,5H2.667A2.719,2.719,0,0,0,0,7.769V20.231A2.719,2.719,0,0,0,2.667,23H21.333A2.719,2.719,0,0,0,24,20.231V7.769A2.719,2.719,0,0,0,21.333,5Z" transform="translate(0 -5)" fill="#006c35"/>
  <g id="Group_17715" data-name="Group 17715" transform="translate(5 4)">
    <path id="Path_11054" data-name="Path 11054" d="M8.805,13.35c.472.045.211-.8.382-.952.032-.075.092-.076.1.019v.716a.343.343,0,0,0,.267.35c.124-.01.206-.005.255.115l.058,1.239s.287.082.3-.7a7.241,7.241,0,0,1-.029-.929c0-.087.114-.093.191-.05.123.087.179.194.37.152.292-.08.467-.222.471-.446a1.953,1.953,0,0,0-.133-.639c.013-.039-.056-.139-.043-.178.052.082.132.075.15,0a.636.636,0,0,0-.252-.388c-.1-.091-.254-.072-.309.117a1.038,1.038,0,0,0,.238.69.679.679,0,0,1,.061.344.185.185,0,0,1-.24-.046s-.232-.174-.232-.213a.827.827,0,0,0-.02-.548.742.742,0,0,0-.154-.3c-.058-.061-.137-.061-.174,0a1.036,1.036,0,0,0,.019.731c.053.157.135.256.1.256-.032.089-.1.068-.146-.034a2.54,2.54,0,0,1-.082-.671c-.021-.176-.043-.554-.159-.649-.071-.1-.176-.05-.213.039a3.142,3.142,0,0,0,.011.512,5.682,5.682,0,0,1,.143.823c.01.389-.225.169-.214-.024a1.746,1.746,0,0,0-.008-.745c-.038-.1-.084-.125-.176-.108-.073-.006-.263.2-.317.545a3.1,3.1,0,0,0-.065.335c-.026.178-.143.3-.225-.025-.071-.238-.114-.826-.233-.689-.034.459-.075,1.268.315,1.35Z" transform="translate(-8.385 -11.072)" fill="#fff"/>
    <path id="Path_11055" data-name="Path 11055" d="M9.541,14.5a1.252,1.252,0,0,0-.973.789c.409-.2.812-.387,1.229-.59-.067-.1,0-.191-.256-.2Z" transform="translate(-8.41 -11.885)" fill="#fff"/>
    <path id="Path_11056" data-name="Path 11056" d="M11.885,15.193c.18-.6-.029-1.042.069-1.04.207.223.5.03.56-.048a.093.093,0,0,1,.143-.013.337.337,0,0,0,.507-.143,4.5,4.5,0,0,0,.069-.622c-.132.041-.231.069-.24.123l-.028.178c-.011.058-.126.06-.13-.013-.05-.228-.258-.258-.383.1-.084.069-.237.082-.253-.02.02-.237-.075-.269-.267-.158-.061-.47-.123-.919-.185-1.389.08,0,.153.057.226-.034a2.531,2.531,0,0,0-.342-.793c-.046-.055-.084-.021-.143-.007a.234.234,0,0,0-.164.287c.119.721.2,1.27.315,1.991.018.084-.052.2-.143.185-.155-.1-.193-.317-.458-.308a.514.514,0,0,0-.438.411,1,1,0,0,0,0,.472.385.385,0,0,0,.438.109c.116-.048.212-.164.253-.137s.007.417-.547.711c-.335.15-.6.185-.746-.089-.089-.171.007-.821-.212-.67-.648,1.67,1.517,1.9,1.759.069.023-.075.114-.151.13-.028-.05,1.66-1.674,1.774-1.95,1.252a1.6,1.6,0,0,1-.1-.561c-.041-.326-.212-.2-.239.123a2,2,0,0,0-.02.4c.086,1.311,2.178.748,2.517-.335Zm-.807-1.134c-.013.025-.072.015-.116.015a.111.111,0,0,1-.1-.05c-.013-.045.028-.087.047-.121a.113.113,0,0,1,.192.03.126.126,0,0,1-.021.126Z" transform="translate(-8.612 -11.072)" fill="#fff"/>
    <path id="Path_11057" data-name="Path 11057" d="M12.275,12.524a6.347,6.347,0,0,0,.746-.752c-.032-.028-.061-.048-.093-.075a.053.053,0,0,1,0-.089.244.244,0,0,0,.024-.373.37.37,0,0,0-.332,0,.279.279,0,0,0-.048.37c.082.039.164.122.11.167-.252.269-.942.733-.862.749a1.568,1.568,0,0,0,.454,0Zm.456-1.106a.116.116,0,0,1,.114.078c.024.052.011.1-.028.112h0c-.039.01-.09-.025-.114-.078S12.693,11.427,12.732,11.417Zm-4,4.281c-.1.207-.144.065-.153-.051a2.654,2.654,0,0,1,.029-.582c.025-.164,0-.114-.052-.048A1.217,1.217,0,0,0,8.434,16.1a.265.265,0,0,0,.261.087.48.48,0,0,0,.174-.464C8.821,15.646,8.783,15.634,8.734,15.7Zm7.606-3.891c.266.357.518.721.766,1.091.049.321.084.635.1.947a15.035,15.035,0,0,1,.016,1.883c.112,0,.294-.182.356-.455A11.362,11.362,0,0,0,17.564,14q-.007-.209-.02-.418c.294.481.581.985.861,1.544.1-.048.08-.62.02-.7-.224-.48-.533-.955-.631-1.138-.037-.067-.161-.258-.31-.477q-.019-.262-.063-.521c-.046-.32.132.035.108-.151a2.052,2.052,0,0,0-.443-.828c-.067-.095-.065-.114-.169.023a.577.577,0,0,0-.049.262q-.049-.072-.1-.138-.169-.146-.34-.29c-.075-.054-.259-.151-.292.01a.934.934,0,0,0,.016.339,1.214,1.214,0,0,0,.192.289Zm.553-.018c.014.062.029.124.039.188l.011.061q-.047-.066-.1-.128c-.123-.145-.021-.114.048-.12Z" transform="translate(-8.356 -11.023)" fill="#fff"/>
    <path id="Path_11058" data-name="Path 11058" d="M21.563,15.313a3.092,3.092,0,0,1-1.043.76c-.044.049.109.261.306.261a1.166,1.166,0,0,0,.892-.714,1.253,1.253,0,0,0,.2-.548,11.989,11.989,0,0,0-.222-2.777.448.448,0,0,1,.009-.193c.021-.025.094,0,.133-.063.056-.058-.15-.536-.268-.72-.042-.082-.056-.137-.126.01a1.032,1.032,0,0,0-.116.522c.158,1.093.206,2.05.309,3.143a.431.431,0,0,1-.078.32Zm4.355-2.772a1.433,1.433,0,0,1-.032-.282c.021-.055.129.006.168-.058.057-.058-.279-.489-.4-.673-.043-.082-.057-.137-.126.01a.853.853,0,0,0-.069.522,24.74,24.74,0,0,1,.333,3.132,1.108,1.108,0,0,1-.066.279,2.228,2.228,0,0,1-.326.38c-.108.08-.337.157-.412.216-.237.138-.238.3-.045.3a1.183,1.183,0,0,0,.991-.474,1.563,1.563,0,0,0,.162-.612,11.885,11.885,0,0,0-.181-2.742Zm-2.5.924c0-.152.017-.354.025-.48,0-.047.015-.1.06-.112s.126.046.127,0a.668.668,0,0,0-.083-.308.174.174,0,0,0-.308.09c0,.064.03.1.025.157-.009.033-.043.055-.125.016.013-.012-.053-.1-.053-.1-.063-.039-.149,0-.2.037a.31.31,0,0,0-.018.247c.09.17.4.457.553.46Z" transform="translate(-11.431 -11.06)" fill="#fff"/>
    <path id="Path_11059" data-name="Path 11059" d="M21.845,12.109c.219.268.442.54.667.817.049.617.061,1.122.109,1.739-.007.261-.087.489-.164.522,0,0-.116.067-.193-.007a2.343,2.343,0,0,1-.283-.377.171.171,0,0,0-.274,0,3.779,3.779,0,0,0-.483.912c-.04.063-.152.117-.277,0a1.279,1.279,0,0,1-.17-.889.983.983,0,0,0-.094.956.751.751,0,0,0,.349.4.245.245,0,0,0,.363-.04c.166-.173.168-.61.246-.7a.146.146,0,0,1,.258-.061.654.654,0,0,0,.235.2.4.4,0,0,0,.521.037.6.6,0,0,0,.278-.338,10.384,10.384,0,0,0,.02-1.8c.116.149.229.306.343.462a11.143,11.143,0,0,1,.062,1.492c-.012.1.351-.3.348-.489,0-.153,0-.292,0-.423.175.263.345.534.505.821.1-.052.067-.616,0-.694-.185-.309-.43-.631-.6-.861-.011-.029-.017-.062-.031-.09a1.887,1.887,0,0,1-.058-.452c-.031-.168-.023-.419-.072-.619a2.184,2.184,0,0,1-.042-.35c.019-.056.094,0,.131-.063a2.23,2.23,0,0,0-.313-.872c-.045-.081-.126-.053-.226.078-.092.087-.058.284-.022.471.087.454.161.89.223,1.321q-.2-.268-.407-.533l-.006-.033c0-.008-.02-.391-.038-.483,0-.037-.012-.048.027-.043a.237.237,0,0,0,.072.049c.042.007.078-.064.054-.128l-.386-.711c-.031-.031-.071-.064-.12.008a.279.279,0,0,0-.1.211c.012.168.041.34.052.509l.016.091c-.017-.02-.038-.046-.047-.055-.328-.345.151-.056-.063-.323a2.519,2.519,0,0,0-.388-.38c-.078-.05-.125-.146-.15.017a3.4,3.4,0,0,0-.011.43.58.58,0,0,0,.13.269Zm-6.65.806c.188.078.309-.281.386-.674.052-.111.093-.123.12-.066-.007.523.037.639.172.8a.435.435,0,0,0,.568.01l.233-.233a.14.14,0,0,1,.194-.01c.072.064.062.176.214.254a.473.473,0,0,0,.467-.1c.086-.146.107-.2.146-.253.061-.081.166-.045.166-.019-.01.046-.071.091-.029.173.073.055.09.019.133.007.152-.073.266-.4.266-.4.007-.123-.062-.113-.107-.087s-.062.047-.12.083c-.075.011-.219.061-.29-.05a4.231,4.231,0,0,1-.13-.452c0-.01-.1-.211-.007-.224.046.008.142.034.158-.047.047-.079-.1-.3-.2-.419a.222.222,0,0,0-.331-.01c-.084.077-.072.162-.088.244a.38.38,0,0,0,.078.331,1.01,1.01,0,0,1,.185.671.271.271,0,0,1-.243.123c-.064-.014-.169-.042-.224-.453-.042-.312.01-.747-.122-.951-.048-.123-.082-.242-.2-.031a.488.488,0,0,0-.068.468,1.386,1.386,0,0,1,.076.728,1.39,1.39,0,0,1-.14.2.229.229,0,0,1-.3.04.316.316,0,0,1-.176-.25,3.391,3.391,0,0,0-.028-.8.146.146,0,0,0-.244-.049,1.832,1.832,0,0,0-.441.9c-.068.22-.14.157-.191.068-.124-.117-.132-1.026-.282-.876-.241.683.136,1.433.4,1.36Z" transform="translate(-9.966 -11.003)" fill="#fff"/>
    <path id="Path_11060" data-name="Path 11060" d="M17.754,14.438l-.072-.041-1.405-.007c-.072-.028-.051-.052,0-.071.335-.046.932-.143.972-.716a.471.471,0,1,0-.924.02c-.013.078.025.229-.053.246-.516.047-1.079.37-1.1.6-.031.022-.1-.041-.093-.14a2.76,2.76,0,0,0-.355-1.2c-.163-.163-.112-.109-.221-.032a.352.352,0,0,0-.079.3c0,.006.131.373.243.63a1.962,1.962,0,0,1,.093.849,2.091,2.091,0,0,1-.858.9.431.431,0,0,1-.359,0,.212.212,0,0,1-.093-.206,2.028,2.028,0,0,0,.861-.89.914.914,0,0,0,.023-.641.608.608,0,0,0-.147-.3c.046-.03.176.069.2.01a.936.936,0,0,0-.247-.456.208.208,0,0,0-.3-.018c-.1.058-.127.266-.077.448.055.137.205.161.313.436,0,.006.039.206-.016.285a3.406,3.406,0,0,1-.647.607c-.016.019-.009-.01-.011-.084,0-.091.037-.306.025-.308-.186.12-.248.489-.282.6a8.722,8.722,0,0,0-1.311.9c-.161.25,1.1-.288,1.251-.353.033.024.029.137.117.238a.667.667,0,0,0,.682.22,2.174,2.174,0,0,0,.987-.82c.038-.056.1-.1.153-.056a1.547,1.547,0,0,0,1.4.734c.159-.193.082-.287.018-.327,0-.006-.338-.134-.39-.263-.031-.117.045-.219.2-.3a6.885,6.885,0,0,0,1.292-.247,1.13,1.13,0,0,1,.142-.442c.054-.093.083-.065.075-.1ZM16.6,13.562c.021-.035.09-.034.155,0s.1.1.08.132-.091.034-.156,0S16.577,13.6,16.6,13.562Zm-.566,1.419c-.151.052-.3.092-.3.31.056.3-.077.2-.155.158a.794.794,0,0,1-.391-.574.147.147,0,0,1,.163-.152,4.388,4.388,0,0,0,.587.066c.164.01.245.139.092.192Zm-5.2-3.366c.161.078.466.045.453-.217,0-.023-.006-.1-.008-.122-.033-.077-.123-.058-.143.022-.007.026.011.068-.012.081s-.065.005-.063-.066a.124.124,0,0,0-.027-.062.052.052,0,0,0-.035-.009c-.022,0-.022.007-.034.026a.218.218,0,0,0-.013.06c0,.025-.013.034-.031.039s-.016,0-.033-.009-.023-.016-.023-.034a.206.206,0,0,0-.01-.064.069.069,0,0,0-.04-.022c-.088,0-.094.1-.089.14C10.711,11.385,10.708,11.566,10.828,11.616Z" transform="translate(-8.953 -11.058)" fill="#fff"/>
    <path id="Path_11061" data-name="Path 11061" d="M15.333,13.261a.127.127,0,0,0-.027-.062.052.052,0,0,0-.035-.009c-.022,0-.022.007-.034.026a.224.224,0,0,0-.013.06c0,.026-.013.035-.031.039s-.016,0-.034-.008-.023-.016-.023-.034a.2.2,0,0,0-.01-.064.064.064,0,0,0-.04-.021c-.088,0-.094.1-.09.139-.007.007-.01.188.11.238.162.077.547.032.453-.217q0-.061-.008-.123c-.033-.077-.123-.058-.143.022-.006.026.012.068-.012.081s-.064.005-.062-.067Zm2.538-.528c.161.078.465.045.452-.216q0-.061-.008-.123c-.033-.077-.123-.058-.143.022-.007.026.011.068-.013.081s-.065.006-.063-.066a.124.124,0,0,0-.027-.062.053.053,0,0,0-.036-.009c-.022,0-.022.007-.034.026a.224.224,0,0,0-.013.06c0,.026-.013.035-.031.039s-.016,0-.034-.008-.022-.016-.022-.034a.211.211,0,0,0-.01-.065.066.066,0,0,0-.04-.021c-.088,0-.094.1-.089.139-.005.007-.009.188.111.238Zm.109-1.01c.058.161-.044.315.016.338s.132-.167.161-.344a.534.534,0,0,0-.214-.5c-.088-.021-.214.031-.173.149-.02.057.178.25.21.354Zm1.49,3.783c.113,0,.243-.258.3-.514a4.361,4.361,0,0,0-.03-.775c-.01-.207-.234-1.787-.28-1.944-.055-.3.219-.04.189-.212-.095-.217-.33-.533-.4-.722-.045-.081-.025-.152-.126-.021a1.63,1.63,0,0,0-.089.737A15.183,15.183,0,0,1,19.47,15.506Zm2.806-3.242c.026.081-.04.341.015.365s.12-.18.146-.372c.014-.105-.063-.473-.195-.539a.125.125,0,0,0-.158.162C22.066,11.943,22.247,12.151,22.276,12.264ZM12.476,15c.049.02.115-.132.14-.273.014-.078-.061-.347-.187-.4-.078-.016-.184,0-.151.12,0,.062.172.137.182.281C12.486,14.786,12.423,14.978,12.476,15Zm-3.4-3.448c.025.062-.025.26.027.279s.114-.137.138-.283c.014-.081,0-.354-.184-.41-.077-.017-.184.025-.149.123-.018.046.14.2.167.291Zm3.662.876a.333.333,0,0,0-.109.442.214.214,0,0,0,.232.075c.14.017.223-.263.223-.263s0-.078-.162.07c-.07.013-.079-.013-.1-.053a.341.341,0,0,1,.022-.218C12.868,12.407,12.814,12.376,12.734,12.424Zm1.077-.861a.192.192,0,0,0,.088-.13c.022-.109-.116.052-.133-.07s.058-.159.141-.268c0-.075,0-.128-.1-.067a.522.522,0,0,0-.22.367c0,.1-.022.1.041.157C13.674,11.617,13.72,11.61,13.811,11.563Zm.97.058a1.318,1.318,0,0,0,.1-.464c-.028-.162-.138-.157-.211.023a2.241,2.241,0,0,0-.062.426C14.584,11.713,14.72,11.758,14.782,11.621Zm6.1,1.78s-.749.533-.767.551c-.075.066-.037.3,0,.272a2.971,2.971,0,0,0,.792-.551c.035,0,.052-.3-.025-.273Zm-.092,1.445c.05.027.182-.137.177-.341.015-.105-.038-.492-.17-.557a.129.129,0,0,0-.151.174c-.019.061.093.276.122.389C20.8,14.593,20.739,14.822,20.793,14.846ZM16.55,15.964a.109.109,0,0,0,.138.018,2.622,2.622,0,0,1,.475-.167c.058,0,.054-.155-.037-.161a.538.538,0,0,0-.348.106c-.073.016-.085-.028-.1-.068-.018-.1.041-.168.028-.242a.141.141,0,0,0-.142-.025.963.963,0,0,0-.217.185c-.032.025-.028.046-.019.087.025.057.069.04.118.013.066-.009.1.034.092.113a.141.141,0,0,0,.013.141Zm4.894.124c-.025.043-.041.107.035.127.14.04.464-.171.464-.175a.1.1,0,0,0,.031-.114c-.031-.035-.1-.015-.146-.02-.022,0-.095-.011-.06-.075a.447.447,0,0,0,.058-.113c.022-.049,0-.081-.076-.107a.6.6,0,0,0-.2,0c-.048.01-.064.031-.073.09,0,.088.057.084.112.119a.1.1,0,0,1,0,.145c-.052.049-.089.075-.142.123ZM21.3,19.965H20.18v-.374a.374.374,0,0,0-.747,0v.374H10.468s0,.747,2.241.747h6.724v.374a.374.374,0,0,0,.747,0v-.374h.747v.374a.374.374,0,1,0,.747,0v-.747A.374.374,0,0,0,21.3,19.965Z" transform="translate(-8.493 -11)" fill="#fff"/>
  </g>
</svg>
