<svg xmlns="http://www.w3.org/2000/svg" width="109" height="109" viewBox="0 0 109 109">
  <g id="Group_17714" data-name="Group 17714" transform="translate(-906 -313)">
    <circle id="Ellipse_285" data-name="Ellipse 285" cx="54.5" cy="54.5" r="54.5" transform="translate(906 313)" fill="var(--primary-bg)"/>
    <g id="user_profile" data-name="user profile" transform="translate(925 333)">
      <rect id="Rectangle_7399" data-name="Rectangle 7399" width="70" height="70" fill="rgba(255,255,255,0)"/>
      <g id="profile_x2C__person" transform="translate(2 1)">
        <g id="Group_17695" data-name="Group 17695" transform="translate(1 1)">
          <g id="Group_17694" data-name="Group 17694">
            <g id="Group_17693" data-name="Group 17693">
              <path id="Path_11044" data-name="Path 11044" d="M33.5,66A32.5,32.5,0,1,1,66,33.5,32.537,32.537,0,0,1,33.5,66Zm0-62.833A30.333,30.333,0,1,0,63.833,33.5,30.367,30.367,0,0,0,33.5,3.167Z" transform="translate(-1 -1)" fill="#fff"/>
            </g>
          </g>
        </g>
        <g id="Group_17709" data-name="Group 17709" transform="translate(15.186 16.916)">
          <g id="team_3_">
            <g id="Group_17699" data-name="Group 17699" transform="translate(21.302 17.285)">
              <g id="Group_17698" data-name="Group 17698">
                <g id="Group_17697" data-name="Group 17697">
                  <g id="Group_17696" data-name="Group 17696">
                    <path id="Path_11045" data-name="Path 11045" d="M28.636,24.235l-8.721-3.026-.592-4.732a3.189,3.189,0,0,1-1.692,1.229L18.168,22a.908.908,0,0,0,.608.751l9.258,3.216a5.09,5.09,0,0,1,3.093,4.361v-.013a.916.916,0,0,0,1.831,0A6.913,6.913,0,0,0,28.636,24.235Z" transform="translate(-17.631 -16.477)" fill="#fff"/>
                  </g>
                </g>
              </g>
            </g>
            <g id="Group_17703" data-name="Group 17703" transform="translate(0 20.724)">
              <g id="Group_17702" data-name="Group 17702">
                <g id="Group_17701" data-name="Group 17701">
                  <g id="Group_17700" data-name="Group 17700">
                    <path id="Path_11046" data-name="Path 11046" d="M6.916,29.668A.916.916,0,0,1,6,28.752v.013a6.912,6.912,0,0,1,4.32-6.091l8.721-3.005.022-.513a.916.916,0,0,1,1.819.229l-.093,1.079a.913.913,0,0,1-.61.751L10.923,24.4a5.1,5.1,0,0,0-3.091,4.361v-.013A.915.915,0,0,1,6.916,29.668Z" transform="translate(-6 -18.355)" fill="#fff"/>
                  </g>
                </g>
              </g>
            </g>
            <g id="Group_17708" data-name="Group 17708" transform="translate(10.621)">
              <g id="Group_17707" data-name="Group 17707">
                <g id="Group_17706" data-name="Group 17706">
                  <g id="Group_17705" data-name="Group 17705">
                    <g id="Group_17704" data-name="Group 17704">
                      <path id="Path_11047" data-name="Path 11047" d="M19.493,27.185c-5.09,0-7.677-3.377-7.694-11.848,0-2.15.225-4.328,2.247-6.353a7.382,7.382,0,0,1,5.447-1.945,7.383,7.383,0,0,1,5.449,1.947c2.022,2.024,2.251,4.2,2.247,6.353C27.17,23.808,24.583,27.185,19.493,27.185Zm0-18.314a5.58,5.58,0,0,0-4.152,1.408c-1.157,1.159-1.718,2.2-1.712,5.057.015,7.359,1.932,10.02,5.862,10.02s5.848-2.661,5.862-10.02c.005-2.859-.555-3.9-1.712-5.057A5.566,5.566,0,0,0,19.493,8.87Z" transform="translate(-11.799 -7.039)" fill="#fff"/>
                    </g>
                  </g>
                </g>
              </g>
            </g>
          </g>
        </g>
      </g>
    </g>
  </g>
</svg>
